<?xml version="1.0" encoding="UTF-8" standalone="no"?><svg xmlns="http://www.w3.org/2000/svg" xmlns:xlink="http://www.w3.org/1999/xlink" contentScriptType="application/ecmascript" contentStyleType="text/css" height="848px" preserveAspectRatio="none" style="width:1348px;height:848px;" version="1.1" viewBox="0 0 1348 848" width="1348px" zoomAndPan="magnify"><defs><filter height="300%" id="f1r5f2miqjvvt9" width="300%" x="-1" y="-1"><feGaussianBlur result="blurOut" stdDeviation="2.0"/><feColorMatrix in="blurOut" result="blurOut2" type="matrix" values="0 0 0 0 0 0 0 0 0 0 0 0 0 0 0 0 0 0 .4 0"/><feOffset dx="4.0" dy="4.0" in="blurOut2" result="blurOut3"/><feBlend in="SourceGraphic" in2="blurOut3" mode="normal"/></filter></defs><g><ellipse cx="930.4346" cy="18" fill="#000000" filter="url(#f1r5f2miqjvvt9)" rx="10" ry="10" style="stroke: none; stroke-width: 1.0;"/><rect fill="#FEFECE" filter="url(#f1r5f2miqjvvt9)" height="40" rx="12.5" ry="12.5" style="stroke: #A80036; stroke-width: 1.5;" width="53" x="903.9346" y="89"/><text fill="#000000" font-family="sans-serif" font-size="14" lengthAdjust="spacingAndGlyphs" textLength="43" x="908.9346" y="113.8467">Empty</text><rect fill="#FEFECE" filter="url(#f1r5f2miqjvvt9)" height="40" rx="12.5" ry="12.5" style="stroke: #A80036; stroke-width: 1.5;" width="69" x="547.9346" y="206"/><text fill="#000000" font-family="sans-serif" font-size="14" lengthAdjust="spacingAndGlyphs" textLength="59" x="552.9346" y="230.8467">Stopped</text><rect fill="#FEFECE" filter="url(#f1r5f2miqjvvt9)" height="40" rx="12.5" ry="12.5" style="stroke: #A80036; stroke-width: 1.5;" width="50" x="715.4346" y="797"/><text fill="#000000" font-family="sans-serif" font-size="14" lengthAdjust="spacingAndGlyphs" textLength="38" x="721.4346" y="821.8467">Open</text><rect fill="#FEFECE" filter="url(#f1r5f2miqjvvt9)" height="40" rx="12.5" ry="12.5" style="stroke: #A80036; stroke-width: 1.5;" width="62" x="156.4346" y="680"/><text fill="#000000" font-family="sans-serif" font-size="14" lengthAdjust="spacingAndGlyphs" textLength="52" x="161.4346" y="704.8467">Paused</text><rect fill="#FEFECE" filter="url(#f1r5f2miqjvvt9)" height="280.2969" rx="12.5" ry="12.5" style="stroke: #A80036; stroke-width: 1.5;" width="418" x="200.4346" y="323"/><rect fill="#FFFFFF" height="248" rx="12.5" ry="12.5" style="stroke: #FFFFFF; stroke-width: 1.0;" width="412" x="203.4346" y="352.2969"/><line style="stroke: #A80036; stroke-width: 1.5;" x1="200.4346" x2="618.4346" y1="349.2969" y2="349.2969"/><text fill="#000000" font-family="sans-serif" font-size="14" lengthAdjust="spacingAndGlyphs" textLength="48" x="385.4346" y="340.9951">Playing</text><ellipse cx="262.4661" cy="382.2969" fill="#000000" filter="url(#f1r5f2miqjvvt9)" rx="10" ry="10" style="stroke: none; stroke-width: 1.0;"/><rect fill="#FEFECE" filter="url(#f1r5f2miqjvvt9)" height="40" rx="12.5" ry="12.5" style="stroke: #A80036; stroke-width: 1.5;" width="55" x="290.9661" y="362.2969"/><text fill="#000000" font-family="sans-serif" font-size="14" lengthAdjust="spacingAndGlyphs" textLength="45" x="295.9661" y="387.1436">Song1</text><rect fill="#FEFECE" filter="url(#f1r5f2miqjvvt9)" height="40" rx="12.5" ry="12.5" style="stroke: #A80036; stroke-width: 1.5;" width="55" x="290.9661" y="455.2969"/><text fill="#000000" font-family="sans-serif" font-size="14" lengthAdjust="spacingAndGlyphs" textLength="45" x="295.9661" y="480.1436">Song2</text><rect fill="#FEFECE" filter="url(#f1r5f2miqjvvt9)" height="40" rx="12.5" ry="12.5" style="stroke: #A80036; stroke-width: 1.5;" width="55" x="290.9661" y="548.2969"/><text fill="#000000" font-family="sans-serif" font-size="14" lengthAdjust="spacingAndGlyphs" textLength="45" x="295.9661" y="573.1436">Song3</text><!--link *start*Playing to Song1--><path d="M272.5286,382.2969 C276.9137,382.2969 281.2989,382.2969 285.684,382.2969 " fill="none" id="*start*Playing-Song1" style="stroke: #A80036; stroke-width: 1.0;"/><polygon fill="#A80036" points="290.8318,382.2969,281.8318,378.2969,285.8318,382.2969,281.8318,386.2969,290.8318,382.2969" style="stroke: #A80036; stroke-width: 1.0;"/><!--link Song1 to Song2--><path d="M290.9105,398.0586 C287.7725,399.5925 284.5818,401.0421 281.4661,402.2969 C253.6601,413.495 234.6149,396.4392 216.4661,420.2969 C195.6266,447.6916 248.1977,463.035 285.3657,470.1996 " fill="none" id="Song1-Song2" style="stroke: #A80036; stroke-width: 1.0;"/><polygon fill="#A80036" points="290.7272,471.1978,282.6115,465.6178,285.8117,470.2825,281.147,473.4826,290.7272,471.1978" style="stroke: #A80036; stroke-width: 1.0;"/><text fill="#000000" font-family="sans-serif" font-size="13" lengthAdjust="spacingAndGlyphs" textLength="181" x="217.4661" y="433.3638">next_song / start_next_song</text><!--link Song2 to Song1--><path d="M346.0289,468.8119 C375.1116,460.5536 414.7815,444.399 399.4661,420.2969 C388.8053,403.52 368.5626,394.0205 350.9814,388.715 " fill="none" id="Song2-Song1" style="stroke: #A80036; stroke-width: 1.0;"/><polygon fill="#A80036" points="346.1034,387.3273,353.6652,393.6375,350.9125,388.6956,355.8545,385.9429,346.1034,387.3273" style="stroke: #A80036; stroke-width: 1.0;"/><text fill="#000000" font-family="sans-serif" font-size="13" lengthAdjust="spacingAndGlyphs" textLength="181" x="403.4661" y="433.3638">prev_song / start_prev_song</text><!--link Song2 to Song3--><path d="M290.8405,481.8196 C263.7248,488.8474 225.1983,500.7252 216.4661,513.2969 C196.8848,541.4879 248.706,556.5316 285.4553,563.4309 " fill="none" id="Song2-Song3" style="stroke: #A80036; stroke-width: 1.0;"/><polygon fill="#A80036" points="290.7577,564.3903,282.6137,558.8517,285.8376,563.5,281.1893,566.7239,290.7577,564.3903" style="stroke: #A80036; stroke-width: 1.0;"/><text fill="#000000" font-family="sans-serif" font-size="13" lengthAdjust="spacingAndGlyphs" textLength="181" x="217.4661" y="526.3638">next_song / start_next_song</text><!--link Song3 to Song2--><path d="M346.0289,561.8119 C375.1116,553.5536 414.7815,537.399 399.4661,513.2969 C388.8053,496.52 368.5626,487.0205 350.9814,481.715 " fill="none" id="Song3-Song2" style="stroke: #A80036; stroke-width: 1.0;"/><polygon fill="#A80036" points="346.1034,480.3273,353.6652,486.6375,350.9125,481.6956,355.8545,478.9429,346.1034,480.3273" style="stroke: #A80036; stroke-width: 1.0;"/><text fill="#000000" font-family="sans-serif" font-size="13" lengthAdjust="spacingAndGlyphs" textLength="181" x="403.4661" y="526.3638">prev_song / start_prev_song</text><!--link *start to Empty--><path d="M930.4346,28.0863 C930.4346,41.4526 930.4346,65.4896 930.4346,83.9036 " fill="none" id="*start-Empty" style="stroke: #A80036; stroke-width: 1.0;"/><polygon fill="#A80036" points="930.4346,88.9346,934.4346,79.9346,930.4346,83.9346,926.4346,79.9346,930.4346,88.9346" style="stroke: #A80036; stroke-width: 1.0;"/><!--link Empty to Stopped--><path d="M903.8729,113.7878 C864.4776,121.2723 788.5315,137.1791 726.4346,159 C689.8888,171.8423 650.0883,190.7664 621.6109,205.23 " fill="none" id="Empty-Stopped" style="stroke: #A80036; stroke-width: 1.0;"/><polygon fill="#A80036" points="617.1399,207.5114,626.9746,206.9837,621.5936,205.2388,623.3385,199.8578,617.1399,207.5114" style="stroke: #A80036; stroke-width: 1.0;"/><text fill="#000000" font-family="sans-serif" font-size="13" lengthAdjust="spacingAndGlyphs" textLength="176" x="727.4346" y="172.0669">cd_detected / store_cd_info</text><!--link Empty to Open--><path d="M930.4346,129.2911 C930.4346,152.6241 930.4346,192.0781 930.4346,226 C930.4346,226 930.4346,226 930.4346,700 C930.4346,774.1179 824.3063,802.8007 770.6851,812.5625 " fill="none" id="Empty-Open" style="stroke: #A80036; stroke-width: 1.0;"/><polygon fill="#A80036" points="765.6652,813.449,775.2237,815.8228,770.589,812.5794,773.8324,807.9447,765.6652,813.449" style="stroke: #A80036; stroke-width: 1.0;"/><text fill="#000000" font-family="sans-serif" font-size="13" lengthAdjust="spacingAndGlyphs" textLength="166" x="931.4346" y="467.5669">open_close / open_drawer</text><!--link Open to Empty--><path d="M765.6101,815.6016 C857.3544,809.8297 1168.4346,784.0611 1168.4346,700 C1168.4346,226 1168.4346,226 1168.4346,226 C1168.4346,180.5658 1026.9829,135.6477 962.1786,117.4531 " fill="none" id="Open-Empty" style="stroke: #A80036; stroke-width: 1.0;"/><polygon fill="#A80036" points="957.2736,116.0859,964.869,122.3556,962.09,117.4285,967.0171,114.6494,957.2736,116.0859" style="stroke: #A80036; stroke-width: 1.0;"/><text fill="#000000" font-family="sans-serif" font-size="13" lengthAdjust="spacingAndGlyphs" textLength="167" x="1169.4346" y="467.5669">open_close / close_drawer</text><!--link Stopped to Open--><path d="M617.0349,231.6277 C643.0719,237.8086 677.2717,250.4831 695.4346,276 C725.6036,318.384 737.2068,690.1066 739.8274,791.531 " fill="none" id="Stopped-Open" style="stroke: #A80036; stroke-width: 1.0;"/><polygon fill="#A80036" points="739.9595,796.7122,743.7288,787.6132,739.8321,791.7138,735.7314,787.8171,739.9595,796.7122" style="stroke: #A80036; stroke-width: 1.0;"/><text fill="#000000" font-family="sans-serif" font-size="13" lengthAdjust="spacingAndGlyphs" textLength="166" x="735.4346" y="646.0669">open_close / open_drawer</text><!--link Stopped to Stopped--><path d="M617.1216,215.5398 C635.3847,213.8473 651.9346,217.334 651.9346,226 C651.9346,233.8536 638.3423,237.4535 622.2007,236.7996 " fill="none" id="Stopped-Stopped" style="stroke: #A80036; stroke-width: 1.0;"/><polygon fill="#A80036" points="617.1216,236.4602,625.8347,241.0517,622.1105,236.7938,626.3684,233.0695,617.1216,236.4602" style="stroke: #A80036; stroke-width: 1.0;"/><text fill="#000000" font-family="sans-serif" font-size="13" lengthAdjust="spacingAndGlyphs" textLength="134" x="657.9346" y="230.5669">stop / stopped_again</text><!--link Stopped to Playing--><path d="M571.7106,246.0896 C564.2455,259.6377 553.8054,277.754 543.4346,293 C537.7128,301.4115 531.7028,309.945 525.5294,318.4805 " fill="none" id="Stopped-Playing" style="stroke: #A80036; stroke-width: 1.0;"/><polygon fill="#A80036" points="522.4863,322.6704,531.0116,317.739,525.4246,318.6248,524.5388,313.0378,522.4863,322.6704" style="stroke: #A80036; stroke-width: 1.0;"/><text fill="#000000" font-family="sans-serif" font-size="13" lengthAdjust="spacingAndGlyphs" textLength="131" x="555.4346" y="289.0669">play / start_playback</text><!--link Playing to Stopped--><path d="M383.5552,322.586 C386.21,305.7556 392.0152,289.7083 402.4346,276 C419.3352,253.7649 494.9632,238.8174 542.6515,231.4156 " fill="none" id="Playing-Stopped" style="stroke: #A80036; stroke-width: 1.0;"/><polygon fill="#A80036" points="547.7489,230.6365,538.2479,228.0422,542.8063,231.3919,539.4566,235.9504,547.7489,230.6365" style="stroke: #A80036; stroke-width: 1.0;"/><text fill="#000000" font-family="sans-serif" font-size="13" lengthAdjust="spacingAndGlyphs" textLength="131" x="403.4346" y="289.0669">stop / stop_playback</text><!--link Playing to Open--><path d="M454.3945,603.2596 C472.883,644.706 497.798,687.6014 530.4346,720 C582.0281,771.2171 665.6605,798.5029 710.223,810.0923 " fill="none" id="Playing-Open" style="stroke: #A80036; stroke-width: 1.0;"/><polygon fill="#A80036" points="715.1971,811.3628,707.467,805.2599,710.3526,810.1254,705.4871,813.011,715.1971,811.3628" style="stroke: #A80036; stroke-width: 1.0;"/><text fill="#000000" font-family="sans-serif" font-size="13" lengthAdjust="spacingAndGlyphs" textLength="182" x="531.4346" y="704.5669">open_close / stop_and_open</text><!--link Playing to Paused--><path d="M200.2984,589.48 C190.9605,594.1936 181.6456,598.7242 172.4346,603 C135.7168,620.0445 109.8757,599.9965 86.4346,633 C66.2026,661.4854 114.7066,681.2056 151.2921,691.5473 " fill="none" id="Playing-Paused" style="stroke: #A80036; stroke-width: 1.0;"/><polygon fill="#A80036" points="156.1406,692.8835,148.527,686.6359,151.3203,691.5549,146.4013,694.3483,156.1406,692.8835" style="stroke: #A80036; stroke-width: 1.0;"/><text fill="#000000" font-family="sans-serif" font-size="13" lengthAdjust="spacingAndGlyphs" textLength="153" x="87.4346" y="646.0669">pause / pause_playback</text><!--link Paused to Playing--><path d="M212.3785,679.8085 C222.881,670.9762 235.05,660.2967 245.4346,650 C259.1446,636.4061 273.0682,621.8565 286.7126,607.0996 " fill="none" id="Paused-Playing" style="stroke: #A80036; stroke-width: 1.0;"/><polygon fill="#A80036" points="290.1752,603.3439,281.1339,607.2496,286.7861,607.02,287.0157,612.6722,290.1752,603.3439" style="stroke: #A80036; stroke-width: 1.0;"/><text fill="#000000" font-family="sans-serif" font-size="13" lengthAdjust="spacingAndGlyphs" textLength="194" x="261.4346" y="646.0669">end_pause / resume_playback</text><!--link Paused to Stopped--><path d="M156.2312,692.2828 C131.5867,684.8673 97.6032,671.5519 74.4346,650 C57.1109,633.8851 55.1604,625.9569 49.4346,603 C19.3191,482.2545 -30.295,418.549 49.4346,323 C112.608,247.2921 429.842,230.5297 542.5922,226.9422 " fill="none" id="Paused-Stopped" style="stroke: #A80036; stroke-width: 1.0;"/><polygon fill="#A80036" points="547.8049,226.7811,538.6855,223.0612,542.8073,226.9357,538.9329,231.0574,547.8049,226.7811" style="stroke: #A80036; stroke-width: 1.0;"/><text fill="#000000" font-family="sans-serif" font-size="13" lengthAdjust="spacingAndGlyphs" textLength="131" x="50.4346" y="467.5669">stop / stop_playback</text><!--link Paused to Open--><path d="M211.8808,720.0151 C232.3542,735.6037 263.032,756.3298 293.4346,767 C370.9151,794.1928 622.7734,810.4516 710.2059,815.3891 " fill="none" id="Paused-Open" style="stroke: #A80036; stroke-width: 1.0;"/><polygon fill="#A80036" points="715.2326,815.6706,706.4705,811.1734,710.2404,815.3909,706.0229,819.1609,715.2326,815.6706" style="stroke: #A80036; stroke-width: 1.0;"/><text fill="#000000" font-family="sans-serif" font-size="13" lengthAdjust="spacingAndGlyphs" textLength="182" x="294.4346" y="763.0669">open_close / stop_and_open</text><!--
@startuml
hide empty description
[*] - -> Empty
Empty - -> Stopped : cd_detected / store_cd_info
Empty - -> Open : open_close / open_drawer
Open - -> Empty : open_close / close_drawer
Stopped - -> Open : open_close / open_drawer
Stopped - -> Stopped : stop / stopped_again
Stopped - -> Playing : play / start_playback

state Playing {
    [*] -r-> Song1
    Song1 - -> Song2 : next_song / start_next_song
    Song2 - -> Song1 : prev_song / start_prev_song
    Song2 - -> Song3 : next_song / start_next_song
    Song3 - -> Song2 : prev_song / start_prev_song

}
Playing - -> Open : open_close / stop_and_open
Playing - -> Paused : pause / pause_playback
Playing - -> Stopped : stop / stop_playback
Paused - -> Playing : end_pause / resume_playback
Paused - -> Stopped : stop / stop_playback
Paused - -> Open : open_close / stop_and_open

@enduml

PlantUML version 1.2019.06(Fri May 24 19:10:25 CEST 2019)
(GPL source distribution)
Java Runtime: OpenJDK Runtime Environment
JVM: OpenJDK 64-Bit Server VM
Java Version: 10.0.2+13
Operating System: Linux
OS Version: 5.1.9-arch1-1-ARCH
Default Encoding: UTF-8
Language: de
Country: DE
--></g></svg>